<?xml version="1.0" encoding="utf-8"?>
<!-- Generator: Adobe Illustrator 26.0.3, SVG Export Plug-In . SVG Version: 6.00 Build 0)  -->
<svg version="1.1" id="Layer_1" xmlns="http://www.w3.org/2000/svg" xmlns:xlink="http://www.w3.org/1999/xlink" x="0px" y="0px"
	 width="1564px" height="450px" viewBox="0 0 1564 450" style="enable-background:new 0 0 1564 450;" xml:space="preserve">
<style type="text/css">
	.st0{fill:#10162F;stroke:#000000;stroke-miterlimit:10;}
	.st1{fill:#1BACFB;}
	.st2{fill:#FFFFFF;}
	.st3{fill:none;stroke:#1BACFB;stroke-width:6;stroke-miterlimit:10;}
</style>
<rect class="st0" width="1564" height="450"/>
<path class="st1" d="M615.3,399.2c-2.8-2.8-6.5-4.8-9.8-4.8c-3,0-5.8,1.6-5.8,4.4c0,2.1,1.3,3.8,5,5.5l3.8,1.8
	c7.3,3.4,11.7,7.3,11.7,14.2s-5.9,13.7-16,13.7c-7,0-12.2-2.7-16.6-6.9l5.1-6.9c3.4,3.5,7.8,5.5,11.3,5.5c4,0,6.4-2.2,6.4-5
	c0-3.2-2.8-4.9-7.3-7l-3.2-1.5c-6.2-2.9-10.1-7.1-10.1-12.9c0-8.1,7.3-13,15.4-13c5.3,0,10.8,2.6,15.2,6.5L615.3,399.2z"/>
<path class="st1" d="M655.5,420.6H633c0.5,3.4,3.1,6.1,6.9,6.1c2.5,0,4.9-1.1,6.1-3.1l8.9,0.9c-2.7,6.5-8.4,9.5-15.1,9.5
	c-9,0-15.8-6.7-15.8-15.9s6.7-15.9,15.7-15.9c8.3,0,15.8,5.4,15.8,18.1L655.5,420.6z M632.8,414.8h13.5c-0.5-3-3-5.5-6.7-5.5
	S633.5,411.6,632.8,414.8z"/>
<path class="st1" d="M667.3,418c0,4.8,3.1,8.2,7.6,8.2c3.2,0,5.5-1.8,6.7-4.6l8.1,2.5c-2,6-7.9,9.8-14.8,9.8
	c-9,0-16.1-6.7-16.1-15.9s7.1-15.9,16.1-15.9c6.9,0,12.8,3.8,14.8,9.8l-8.1,2.4c-1.1-2.8-3.5-4.6-6.7-4.6
	C670.4,409.8,667.3,413.3,667.3,418L667.3,418z"/>
<path class="st1" d="M692.7,418c0-9.2,7.2-15.9,16.2-15.9s16.2,6.7,16.2,15.9s-7.2,15.9-16.2,15.9C699.9,434,692.7,427.3,692.7,418z
	 M701.3,418c0,4.7,3.1,8.2,7.6,8.2c4.4,0,7.5-3.6,7.5-8.2c0-4.8-3.1-8.2-7.5-8.2C704.4,409.8,701.3,413.3,701.3,418z"/>
<path class="st1" d="M748,402.1c6.5,0,11.2,4.2,11.2,11.2v19.8h-8.6v-17.6c0-3.8-2.4-5.4-5.1-5.4c-2.5,0-4.8,1.4-6.4,3.4v19.6h-8.6
	v-30.2h8.4v1.2c0,1.1-0.1,2.4-0.1,2.4C741.1,403.7,744.5,402.1,748,402.1L748,402.1z"/>
<path class="st1" d="M788.6,429.3c-1.5,2.5-5.1,4.6-9.4,4.6c-8.3,0-14.7-6.7-14.7-15.9s6.3-15.9,14.6-15.9c4.6,0,8.1,2.1,9.6,4.7
	c0-1-0.1-3.5-0.1-5.7V387h8.6v46.2h-8.6L788.6,429.3z M773.3,418c0,4.6,3.2,8.3,7.7,8.3s7.7-3.7,7.7-8.3c0-4.7-3.2-8.2-7.7-8.2
	S773.3,413.4,773.3,418z"/>
<path class="st1" d="M818.9,433.2V387h9.2v38.3h19.6v7.9L818.9,433.2z"/>
<path class="st1" d="M881.8,420.6h-22.5c0.5,3.4,3.1,6.1,6.9,6.1c2.5,0,4.9-1.1,6.1-3.1l8.9,0.9c-2.7,6.5-8.4,9.5-15.1,9.5
	c-9,0-15.8-6.7-15.8-15.9s6.7-15.9,15.7-15.9c8.3,0,15.8,5.4,15.8,18.1L881.8,420.6z M859.1,414.8h13.5c-0.5-3-3-5.5-6.7-5.5
	S859.7,411.6,859.1,414.8z"/>
<path class="st1" d="M898.9,423.9l6.9-21h9L904,433.2h-10.6L883.1,403h9.3L898.9,423.9z"/>
<path class="st1" d="M947.7,420.6h-22.5c0.5,3.4,3.1,6.1,6.9,6.1c2.5,0,4.9-1.1,6.1-3.1l8.9,0.9c-2.7,6.5-8.4,9.5-15.1,9.5
	c-9,0-15.8-6.7-15.8-15.9s6.7-15.9,15.7-15.9c8.3,0,15.8,5.4,15.8,18.1L947.7,420.6z M925,414.8h13.5c-0.5-3-3-5.5-6.7-5.5
	S925.7,411.6,925,414.8z"/>
<path class="st1" d="M961.3,433.2h-8.5V387h8.5V433.2z"/>
<path class="st1" d="M998.8,433.2H983V387h15.8c15.1,0,24,9.4,24,23.1S1014,433.2,998.8,433.2z M998.5,394.8h-6.3v30.6h6.3
	c8.4,0,14.9-5,14.9-15.3S1007,394.8,998.5,394.8L998.5,394.8z"/>
<path class="st1" d="M1026.4,418c0-9.2,7.2-15.9,16.2-15.9s16.2,6.7,16.2,15.9s-7.2,15.9-16.2,15.9
	C1033.6,434,1026.4,427.3,1026.4,418z M1034.9,418c0,4.7,3.1,8.2,7.6,8.2c4.4,0,7.5-3.6,7.5-8.2c0-4.8-3.1-8.2-7.5-8.2
	C1038,409.8,1034.9,413.3,1034.9,418z"/>
<path class="st1" d="M1103.9,415.4c0-3.7-2.4-5.3-5-5.3c-2.4,0-4.6,1.4-6.3,3.4v19.6h-8.6v-17.8c0-3.6-2.3-5.3-5-5.3
	c-2.4,0-4.6,1.4-6.3,3.4V433h-8.6v-30.2h8.4v1.2c0,1.1-0.1,2.4-0.1,2.4c2.2-2.8,5.6-4.4,9-4.4c4.5,0,8,1.9,9.7,5.5
	c2.5-3.5,5.9-5.5,10.2-5.5c6.5,0,11.2,4.2,11.2,11.2V433h-8.6L1103.9,415.4z"/>
<path class="st1" d="M1136.3,413c0-2.2-1.7-3.6-5-3.6c-3,0-6.9,1.5-9.1,2.8l-3.4-6.5c0,0,5.6-3.7,12.9-3.7c6.9,0,13.1,3.2,13.1,11.2
	v19.9h-8.6v-2.8c-1.6,2.4-5,3.6-8.4,3.6c-6.4,0-10.6-4.6-10.6-9.5c0-5.7,4.2-9.3,11-9.3h5.9c1.5,0,2.1-0.7,2.1-1.8L1136.3,413
	L1136.3,413z M1136.3,422.3v-2.2c-0.5,0.5-1.5,0.7-2.6,0.7h-3.2c-2.7,0-4.3,1.2-4.3,3.3c0,2,1.7,3.6,4.3,3.6
	C1133.5,427.7,1136.3,426.1,1136.3,422.3L1136.3,422.3z"/>
<path class="st1" d="M1162.3,433.2h-8.6v-23h-4.2v-7.3h12.8L1162.3,433.2z M1157.6,387c3.1,0,5.5,2.5,5.5,5.5c0,3.1-2.4,5.5-5.5,5.5
	c-3,0-5.5-2.4-5.5-5.5C1152.2,389.5,1154.6,387,1157.6,387z"/>
<path class="st1" d="M1187.2,402.1c6.5,0,11.2,4.2,11.2,11.2v19.8h-8.6v-17.6c0-3.8-2.4-5.4-5.1-5.4c-2.5,0-4.8,1.4-6.4,3.4v19.6
	h-8.6v-30.2h8.4v1.2c0,1.1-0.1,2.4-0.1,2.4C1180.3,403.7,1183.7,402.1,1187.2,402.1z"/>
<g>
	<path class="st2" d="M54.7,209.8c10.1,0,17.3,6.4,17.3,17.3v30.6H58.8v-27.2c0-5.9-3.8-8.4-8-8.4c-3.9,0-7.3,2.1-9.9,5.3v30.3H27.7
		v-71.4h13.1v26.5c0,1.6-0.2,3.7-0.2,3.7C44.1,212.1,49.4,209.8,54.7,209.8L54.7,209.8z"/>
	<path class="st2" d="M99.7,193.2V211h10.1v11.2H99.7v21.1c0,3,2.3,3.4,4.4,3.4c3.4,0,6.1-0.3,6.1-0.3v11.3c0,0-6.4,0.6-10.3,0.6
		c-6.6,0-13.5-1.1-13.5-10.5v-25.6h-7.3V211h7.3v-17.7L99.7,193.2L99.7,193.2z"/>
	<path class="st2" d="M135.7,193.2V211h10.1v11.2h-10.1v21.1c0,3,2.3,3.4,4.4,3.4c3.4,0,6.1-0.3,6.1-0.3v11.3c0,0-6.4,0.6-10.3,0.6
		c-6.6,0-13.5-1.1-13.5-10.5v-25.6h-7.3V211h7.3v-17.7L135.7,193.2L135.7,193.2z"/>
	<path class="st2" d="M168.3,275.6H155V211h13.3v2.2c0,2.2-0.2,3.3-0.2,3.8c2.2-4,7.8-7.2,14.8-7.2c12.9,0,22.6,10.3,22.6,24.6
		s-9.9,24.6-22.7,24.6c-6.6,0-12.1-3.2-14.5-7.1L168.3,275.6z M168,234.4c0,7.1,4.9,12.9,11.9,12.9s11.9-5.7,11.9-12.9
		s-4.9-12.8-11.9-12.8S168,227.1,168,234.4z"/>
	<path class="st2" d="M241.6,225.3c-3.8-3.7-8.5-4.8-11.5-4.8c-3.5,0-4.7,1.7-4.7,3.2c0,1.6,1,2.8,3.5,3.6l7.8,2.4
		c9.6,3.2,12.9,8.4,12.9,14.5c0,6.8-5.8,14.8-18.6,14.8c-10.3,0-16.7-4-20.6-7.3l7-9.2c3.4,3.2,9.4,5.8,13.8,5.8
		c3.2,0,5.1-1.6,5.1-3.5c0-2.3-1.5-3.4-5.3-4.5l-8-2.3c-7.5-2.4-10.8-7.5-10.8-13.7c0-7.7,6.9-14.5,18.2-14.5
		c6.1,0,13.4,1.8,18.9,6.9L241.6,225.3z"/>
	<path class="st2" d="M267,211c5,0,9,4,9,9c0,4.9-4,8.9-9,8.9c-4.9,0-8.9-4-8.9-8.9C258.1,215,262.1,211,267,211z M267,241.2
		c5,0,9,4,9,8.9c0,5-4,8.9-9,8.9c-4.9,0-8.9-3.9-8.9-8.9C258.1,245.2,262.1,241.2,267,241.2L267,241.2z"/>
	<path class="st2" d="M309.1,186.3h12.2l-24.2,71.4H285L309.1,186.3z"/>
	<path class="st2" d="M343.6,186.3h12.2l-24.2,71.4h-12.2L343.6,186.3z"/>
	<path class="st2" d="M411.4,241.4l7.1-30.4h13.7l-12.1,46.7h-15.7l-8.2-29.2l-8.4,29.2h-15.6L360.8,211h14.3l6.2,30l8.7-30h13
		L411.4,241.4z"/>
	<path class="st2" d="M486.6,241.4l7.1-30.4h13.7l-12.1,46.7h-15.7l-8.2-29.2l-8.4,29.2h-15.6L436,211h14.3l6.2,30l8.7-30h13
		L486.6,241.4z"/>
	<path class="st2" d="M561.8,241.4l7.1-30.4h13.7l-12.1,46.7h-15.7l-8.2-29.2l-8.4,29.2h-15.6L511.2,211h14.3l6.2,30l8.7-30h13
		L561.8,241.4z"/>
	<path class="st2" d="M596,241.2c4.9,0,8.9,4,8.9,8.9s-4,8.9-8.9,8.9s-8.9-4-8.9-8.9S591.1,241.2,596,241.2L596,241.2z"/>
	<path class="st2" d="M625.6,234.4c0,7.3,4.8,12.8,11.7,12.8c4.9,0,8.6-2.8,10.3-7.1L660,244c-3.1,9.3-12.2,15.1-22.8,15.1
		c-13.9,0-24.9-10.3-24.9-24.6s11-24.6,24.9-24.6c10.6,0,19.8,5.9,22.8,15.2l-12.4,3.8c-1.7-4.3-5.4-7.1-10.3-7.1
		C630.4,221.6,625.6,227,625.6,234.4L625.6,234.4z"/>
	<path class="st2" d="M665,234.4c0-14.3,11.1-24.6,25-24.6s25,10.3,25,24.6S703.9,259,690,259C676.1,258.9,665,248.6,665,234.4z
		 M678.3,234.4c0,7.2,4.8,12.8,11.7,12.8c6.8,0,11.6-5.5,11.6-12.8s-4.8-12.8-11.6-12.8C683.1,221.6,678.3,227,678.3,234.4z"/>
	<path class="st2" d="M757.8,251.8c-2.3,3.9-7.9,7.1-14.6,7.1c-12.9,0-22.6-10.3-22.6-24.6s9.7-24.6,22.5-24.6
		c7.1,0,12.5,3.3,14.9,7.2c0-1.5-0.2-5.4-0.2-8.9v-21.8h13.3v71.4h-13.3L757.8,251.8z M734.3,234.4c0,7.1,4.9,12.9,11.9,12.9
		s11.9-5.7,11.9-12.9s-4.9-12.8-11.9-12.8S734.3,227.1,734.3,234.4z"/>
	<path class="st2" d="M828.3,238.2h-34.8c0.7,5.2,4.8,9.4,10.7,9.4c3.9,0,7.5-1.6,9.4-4.8l13.8,1.4c-4.2,10-13,14.7-23.4,14.7
		c-14,0-24.5-10.3-24.5-24.6s10.3-24.6,24.3-24.6c12.9,0,24.5,8.4,24.5,27.9V238.2z M793.2,229.4h20.9c-0.7-4.7-4.7-8.6-10.3-8.6
		S794.2,224.4,793.2,229.4L793.2,229.4z"/>
	<path class="st2" d="M846.5,234.4c0,7.3,4.8,12.8,11.7,12.8c4.9,0,8.6-2.8,10.3-7.1l12.4,3.9c-3.1,9.3-12.2,15.1-22.8,15.1
		c-13.9,0-24.9-10.3-24.9-24.6s11-24.6,24.9-24.6c10.6,0,19.8,5.9,22.8,15.2l-12.4,3.8c-1.7-4.3-5.4-7.1-10.3-7.1
		C851.3,221.6,846.5,227,846.5,234.4L846.5,234.4z"/>
	<path class="st2" d="M914.7,226.6c0-3.4-2.7-5.5-7.8-5.5c-4.7,0-10.6,2.3-14.1,4.4l-5.2-10c0,0,8.7-5.7,20-5.7
		c10.6,0,20.3,4.9,20.3,17.2v30.7h-13.3v-4.4c-2.4,3.7-7.8,5.6-13.1,5.6c-9.9,0-16.3-7-16.3-14.7c0-8.9,6.5-14.4,16.9-14.4h9.2
		c2.2,0,3.3-1,3.3-2.8L914.7,226.6L914.7,226.6z M914.7,241v-3.4c-0.8,0.8-2.2,1-4.1,1h-5c-4.2,0-6.6,1.8-6.6,5.1
		c0,3.2,2.5,5.5,6.6,5.5C910.4,249.2,914.7,246.8,914.7,241L914.7,241z"/>
	<path class="st2" d="M973.2,251.8c-2.3,3.9-7.9,7.1-14.6,7.1c-12.9,0-22.6-10.3-22.6-24.6s9.7-24.6,22.5-24.6
		c7.1,0,12.5,3.3,14.9,7.2c0-1.5-0.2-5.4-0.2-8.9v-21.8h13.3v71.4h-13.3L973.2,251.8z M949.7,234.4c0,7.1,4.9,12.9,11.9,12.9
		s11.9-5.7,11.9-12.9s-4.9-12.8-11.9-12.8S949.7,227.1,949.7,234.4z"/>
	<path class="st2" d="M1043.7,238.2h-34.8c0.7,5.2,4.8,9.4,10.7,9.4c3.9,0,7.5-1.6,9.4-4.8l13.8,1.4c-4.2,10-13,14.7-23.4,14.7
		c-14,0-24.5-10.3-24.5-24.6s10.3-24.6,24.3-24.6c12.9,0,24.5,8.4,24.5,27.9V238.2z M1008.6,229.4h20.9c-0.7-4.7-4.7-8.6-10.3-8.6
		S1009.7,224.4,1008.6,229.4L1008.6,229.4z"/>
	<path class="st2" d="M1113,230.3c0-5.7-3.7-8.2-7.8-8.2c-3.8,0-7.1,2.1-9.7,5.3v30.3h-13.3v-27.4c0-5.6-3.6-8.2-7.8-8.2
		c-3.8,0-7.1,2.1-9.7,5.3v30.3h-13.3V211h13v1.8c0,1.6-0.2,3.7-0.2,3.7c3.5-4.3,8.7-6.7,14-6.7c6.9,0,12.3,3,15,8.5
		c3.9-5.4,9.2-8.5,15.7-8.5c10.1,0,17.2,6.4,17.2,17.3v30.6H1113L1113,230.3z"/>
	<path class="st2" d="M1151.2,257.7h-3.4l-16-46.7h14.8l9.9,33.3l10-33.3h14.4l-18.7,54.1c-2.3,6.8-6,10.5-14.6,10.5h-9.2v-11.1h6.5
		c2.7,0,4.3-1,5.2-3.7L1151.2,257.7z"/>
	<path class="st2" d="M1192.5,241.2c4.9,0,8.9,4,8.9,8.9s-4,8.9-8.9,8.9s-8.9-4-8.9-8.9C1183.7,245.2,1187.6,241.2,1192.5,241.2
		L1192.5,241.2z"/>
	<path class="st2" d="M1222.2,234.4c0,7.3,4.8,12.8,11.7,12.8c4.9,0,8.6-2.8,10.3-7.1l12.4,3.9c-3.1,9.3-12.2,15.1-22.8,15.1
		c-13.9,0-24.9-10.3-24.9-24.6s11-24.6,24.9-24.6c10.6,0,19.8,5.9,22.8,15.2l-12.4,3.8c-1.7-4.3-5.4-7.1-10.3-7.1
		C1227,221.6,1222.2,227,1222.2,234.4L1222.2,234.4z"/>
	<path class="st2" d="M1261.6,234.4c0-14.3,11.1-24.6,25-24.6s25,10.3,25,24.6s-11.1,24.6-25,24.6
		C1272.7,258.9,1261.6,248.6,1261.6,234.4z M1274.9,234.4c0,7.2,4.8,12.8,11.7,12.8c6.8,0,11.6-5.5,11.6-12.8s-4.8-12.8-11.6-12.8
		C1279.6,221.6,1274.9,227,1274.9,234.4z"/>
	<path class="st2" d="M1381.4,230.3c0-5.7-3.7-8.2-7.8-8.2c-3.8,0-7.1,2.1-9.7,5.3v30.3h-13.3v-27.4c0-5.6-3.6-8.2-7.8-8.2
		c-3.8,0-7.1,2.1-9.7,5.3v30.3H1320V211h13v1.8c0,1.6-0.2,3.7-0.2,3.7c3.5-4.3,8.7-6.7,14-6.7c6.9,0,12.3,3,15,8.5
		c3.9-5.4,9.2-8.5,15.7-8.5c10.1,0,17.2,6.4,17.2,17.3v30.6h-13.3L1381.4,230.3z"/>
</g>
<g>
	<path class="st1" d="M31.5,432.1h-8.8v-44.8h15.2c10.6,0,16.1,6.6,16.1,14.7s-5.6,14.9-16.1,14.9h-6.3v15.2L31.5,432.1z M31.5,395
		v14.3h5c4.9,0,8.4-2.3,8.4-7.3s-3.5-7-8.4-7H31.5z"/>
	<path class="st1" d="M76.3,411h-3.5c-4.2,0-6.1,2-6.1,7.1v14h-8.3v-29.3h8.1v4.7c1.2-3.1,4-5.1,7.6-5.1c0.8,0,1.5,0.1,2.3,0.3v8.3
		H76.3z"/>
	<path class="st1" d="M78.8,417.5c0-9,7-15.4,15.7-15.4s15.7,6.5,15.7,15.4c0,9-7,15.4-15.7,15.4S78.8,426.4,78.8,417.5z
		 M87.1,417.5c0,4.5,3,8,7.4,8c4.3,0,7.3-3.5,7.3-8c0-4.6-3-8-7.3-8C90.1,409.5,87.1,412.8,87.1,417.5z"/>
	<path class="st1" d="M126,391.7v11.1h6.3v7H126V423c0,1.9,1.5,2.1,2.8,2.1c2.1,0,3.8-0.2,3.8-0.2v7.1c0,0-4,0.4-6.5,0.4
		c-4.2,0-8.4-0.7-8.4-6.6v-16.1H113v-7h4.6v-11.1h8.4L126,391.7z"/>
	<path class="st1" d="M136.2,417.5c0-9,7-15.4,15.7-15.4s15.7,6.5,15.7,15.4c0,9-7,15.4-15.7,15.4S136.2,426.4,136.2,417.5z
		 M144.5,417.5c0,4.5,3,8,7.4,8c4.3,0,7.3-3.5,7.3-8c0-4.6-3-8-7.3-8C147.5,409.5,144.5,412.8,144.5,417.5z"/>
	<path class="st1" d="M179.3,417.5c0,4.6,3,8,7.4,8c3.1,0,5.4-1.7,6.5-4.5l7.8,2.4c-1.9,5.8-7.7,9.5-14.3,9.5
		c-8.7,0-15.6-6.5-15.6-15.4c0-9,6.9-15.4,15.6-15.4c6.7,0,12.4,3.7,14.3,9.5l-7.8,2.4c-1.1-2.7-3.4-4.5-6.5-4.5
		C182.3,409.5,179.3,412.8,179.3,417.5z"/>
	<path class="st1" d="M204,417.5c0-9,7-15.4,15.7-15.4s15.7,6.5,15.7,15.4c0,9-7,15.4-15.7,15.4S204,426.4,204,417.5z M212.4,417.5
		c0,4.5,3,8,7.4,8c4.3,0,7.3-3.5,7.3-8c0-4.6-3-8-7.3-8C215.4,409.5,212.4,412.8,212.4,417.5z"/>
	<path class="st1" d="M249,432.1h-8.3v-44.8h8.3V432.1z"/>
	<path class="st1" d="M344.7,33.2c-2.8-2.7-6.3-4.6-9.5-4.6c-2.9,0-5.6,1.5-5.6,4.2c0,2,1.3,3.6,4.9,5.3l3.7,1.7
		c7.1,3.3,11.4,7,11.4,13.8c0,6.7-5.7,13.2-15.6,13.2c-6.8,0-11.8-2.6-16.1-6.7l4.9-6.7c3.3,3.4,7.6,5.3,10.9,5.3
		c3.8,0,6.2-2.1,6.2-4.9c0-3.1-2.8-4.8-7-6.8l-3.1-1.5c-6-2.8-9.8-6.9-9.8-12.5c0-7.9,7-12.6,15-12.6c5.2,0,10.5,2.6,14.8,6.3
		L344.7,33.2z"/>
	<path class="st1" d="M354.3,55.4V36.8h8.3v17c0,4,2.7,5.6,5.6,5.6c3,0,5.6-1.6,5.6-5.6v-17h8.3v18.6c0,6.1-4.9,11.5-13.9,11.5
		C359.3,66.9,354.3,61.5,354.3,55.4z"/>
	<path class="st1" d="M397.2,66.1h-8.3V21.3h8.3v14.5c0,1.9-0.1,4-0.1,4.8c1.4-2.5,4.9-4.5,9.3-4.5c8.1,0,14.2,6.5,14.2,15.4
		c0,9-6.2,15.4-14.3,15.4c-4.2,0-7.6-2-9.1-4.5V66.1z M397,51.5c0,4.5,3.1,8.1,7.5,8.1s7.5-3.6,7.5-8.1s-3.1-8-7.5-8
		S397,46.9,397,51.5z"/>
	<path class="st1" d="M423.6,45.4H437v7h-13.4V45.4z"/>
	<path class="st1" d="M458.4,66.1H443V21.3h15.4c14.7,0,23.2,9.1,23.2,22.4S473,66.1,458.4,66.1z M458.1,28.9H452v29.6h6.1
		c8.2,0,14.5-4.8,14.5-14.8C472.5,33.8,466.2,28.9,458.1,28.9z"/>
	<path class="st1" d="M485.1,51.5c0-9,7-15.4,15.7-15.4s15.7,6.5,15.7,15.4c0,9-7,15.4-15.7,15.4S485.1,60.4,485.1,51.5L485.1,51.5z
		 M493.4,51.5c0,4.5,3,8,7.4,8c4.3,0,7.3-3.5,7.3-8c0-4.6-3-8-7.3-8C496.4,43.5,493.4,46.8,493.4,51.5z"/>
	<path class="st1" d="M560.3,48.9c0-3.6-2.3-5.1-4.9-5.1c-2.4,0-4.5,1.3-6.1,3.3v19H541V48.9c0-3.5-2.2-5.1-4.9-5.1
		c-2.4,0-4.5,1.3-6.1,3.3v19h-8.3V36.8h8.1V38c0,1-0.1,2.3-0.1,2.3c2.2-2.7,5.4-4.2,8.8-4.2c4.4,0,7.7,1.9,9.4,5.3
		c2.4-3.4,5.8-5.3,9.9-5.3c6.3,0,10.8,4,10.8,10.9v19.2h-8.3L560.3,48.9z"/>
	<path class="st1" d="M591.7,46.6c0-2.1-1.7-3.5-4.9-3.5c-2.9,0-6.7,1.5-8.8,2.8l-3.3-6.3c0,0,5.4-3.6,12.5-3.6
		c6.7,0,12.7,3.1,12.7,10.8v19.3h-8.3v-2.8c-1.5,2.3-4.9,3.5-8.2,3.5c-6.2,0-10.2-4.4-10.2-9.2c0-5.6,4.1-9,10.6-9h5.8
		c1.4,0,2-0.6,2-1.7v-0.3L591.7,46.6z M591.7,55.6v-2.1c-0.5,0.5-1.4,0.6-2.6,0.6H586c-2.6,0-4.2,1.2-4.2,3.2s1.6,3.5,4.2,3.5
		C589,60.8,591.7,59.3,591.7,55.6L591.7,55.6z"/>
	<path class="st1" d="M616.9,66.1h-8.3V43.8h-4.1v-7h12.4L616.9,66.1z M612.4,21.3c3,0,5.4,2.4,5.4,5.4s-2.4,5.3-5.4,5.3
		c-2.9,0-5.3-2.3-5.3-5.3C607,23.7,609.4,21.3,612.4,21.3z"/>
	<path class="st1" d="M641,36c6.3,0,10.9,4,10.9,10.9v19.2h-8.3V49c0-3.7-2.4-5.2-5-5.2c-2.4,0-4.6,1.3-6.2,3.3v19h-8.3V36.8h8.1V38
		c0,1-0.1,2.3-0.1,2.3C634.3,37.5,637.6,36,641,36L641,36z"/>
	<path class="st1" d="M1107.5,24.3v7.9h-13.4v36.9h-8.8V32.2h-13.4v-7.9L1107.5,24.3z"/>
	<path class="st1" d="M1103.4,54.5c0-9,7-15.4,15.7-15.4s15.7,6.5,15.7,15.4c0,9-7,15.4-15.7,15.4S1103.4,63.4,1103.4,54.5z
		 M1111.8,54.5c0,4.5,3,8,7.4,8c4.3,0,7.3-3.5,7.3-8c0-4.6-3-8-7.3-8C1114.8,46.5,1111.8,49.8,1111.8,54.5z"/>
	<path class="st1" d="M1148.4,80.3h-8.3V39.8h8.3v1.4c0,1.4-0.1,2-0.1,2.4c1.4-2.5,4.9-4.5,9.3-4.5c8.1,0,14.2,6.5,14.2,15.4
		c0,9-6.2,15.4-14.3,15.4c-4.2,0-7.6-2-9.1-4.5V80.3z M1148.2,54.5c0,4.5,3.1,8.1,7.5,8.1s7.5-3.6,7.5-8.1s-3.1-8-7.5-8
		S1148.2,49.9,1148.2,54.5z"/>
	<path class="st1" d="M1174.9,48.4h13.4v7h-13.4V48.4z"/>
	<path class="st1" d="M1201.4,69.1h-8.3V24.3h8.3V69.1z"/>
	<path class="st1" d="M1237.3,56.9h-21.8c0.4,3.3,3,5.9,6.7,5.9c2.4,0,4.7-1,5.9-3l8.6,0.9c-2.6,6.3-8.1,9.2-14.7,9.2
		c-8.8,0-15.4-6.5-15.4-15.4c0-9,6.5-15.4,15.2-15.4c8.1,0,15.4,5.2,15.4,17.5v0.3L1237.3,56.9z M1215.3,51.3h13.1
		c-0.4-2.9-2.9-5.4-6.5-5.4S1216,48.2,1215.3,51.3z"/>
	<path class="st1" d="M1253.9,60.1l6.7-20.4h8.8L1259,69h-10.3l-10-29.3h9L1253.9,60.1z"/>
	<path class="st1" d="M1301.3,56.9h-21.8c0.4,3.3,3,5.9,6.7,5.9c2.4,0,4.7-1,5.9-3l8.6,0.9c-2.6,6.3-8.1,9.2-14.7,9.2
		c-8.8,0-15.4-6.5-15.4-15.4c0-9,6.5-15.4,15.2-15.4c8.1,0,15.4,5.2,15.4,17.5v0.3L1301.3,56.9z M1279.3,51.3h13.1
		c-0.4-2.9-2.9-5.4-6.5-5.4S1279.9,48.2,1279.3,51.3z"/>
	<path class="st1" d="M1314.5,69.1h-8.3V24.3h8.3V69.1z"/>
	<path class="st1" d="M1350.9,69.1h-15.4V24.3h15.4c14.7,0,23.2,9.1,23.2,22.4S1365.5,69.1,1350.9,69.1z M1350.5,31.9h-6.1v29.6h6.1
		c8.2,0,14.5-4.8,14.5-14.8C1365,36.8,1358.7,31.9,1350.5,31.9z"/>
	<path class="st1" d="M1377.6,54.5c0-9,7-15.4,15.7-15.4s15.7,6.5,15.7,15.4c0,9-7,15.4-15.7,15.4
		C1384.5,69.9,1377.6,63.4,1377.6,54.5z M1385.9,54.5c0,4.5,3,8,7.4,8c4.3,0,7.3-3.5,7.3-8c0-4.6-3-8-7.3-8
		C1388.9,46.5,1385.9,49.8,1385.9,54.5z"/>
	<path class="st1" d="M1452.8,51.9c0-3.6-2.3-5.1-4.9-5.1c-2.4,0-4.5,1.3-6.1,3.3v19h-8.3V51.9c0-3.5-2.2-5.1-4.9-5.1
		c-2.4,0-4.5,1.3-6.1,3.3v19h-8.3V39.8h8.1V41c0,1-0.1,2.3-0.1,2.3c2.2-2.7,5.4-4.2,8.8-4.2c4.4,0,7.7,1.9,9.4,5.3
		c2.4-3.4,5.8-5.3,9.9-5.3c6.3,0,10.8,4,10.8,10.9v19.2h-8.3V51.9z"/>
	<path class="st1" d="M1484.2,49.6c0-2.1-1.7-3.5-4.9-3.5c-2.9,0-6.7,1.5-8.8,2.8l-3.3-6.3c0,0,5.4-3.6,12.5-3.6
		c6.7,0,12.7,3.1,12.7,10.8v19.3h-8.3v-2.8c-1.5,2.3-4.9,3.5-8.2,3.5c-6.2,0-10.2-4.4-10.2-9.2c0-5.6,4.1-9,10.6-9h5.8
		c1.4,0,2-0.6,2-1.7v-0.3L1484.2,49.6z M1484.2,58.6v-2.1c-0.5,0.5-1.4,0.6-2.6,0.6h-3.1c-2.6,0-4.2,1.2-4.2,3.2s1.6,3.5,4.2,3.5
		C1481.5,63.8,1484.2,62.3,1484.2,58.6z"/>
	<path class="st1" d="M1509.4,69.1h-8.3V46.8h-4.1v-7h12.4V69.1z M1504.9,24.3c3,0,5.4,2.4,5.4,5.4s-2.4,5.3-5.4,5.3
		c-2.9,0-5.3-2.3-5.3-5.3C1499.5,26.7,1501.9,24.3,1504.9,24.3z"/>
	<path class="st1" d="M1533.5,39c6.3,0,10.9,4,10.9,10.9v19.2h-8.3V52c0-3.7-2.4-5.2-5-5.2c-2.4,0-4.6,1.3-6.2,3.3v19h-8.3V39.8h8.1
		V41c0,1-0.1,2.3-0.1,2.3C1526.8,40.5,1530.1,39,1533.5,39z"/>
</g>
<path class="st3" d="M25,285.9V337h221.8v-51"/>
<path class="st3" d="M136,337v31"/>
<path class="st3" d="M1400,180v-51.1h-202v51"/>
<path class="st3" d="M1302.8,128.9v-31"/>
<path class="st3" d="M592,180v-51.1H364v51"/>
<path class="st3" d="M481.8,128.9v-31"/>
<path class="st3" d="M609,285.9V337h565v-51"/>
<path class="st3" d="M890,337v31"/>
</svg>
